<svg width="56" height="10" viewBox="0 0 56 10" fill="none" xmlns="http://www.w3.org/2000/svg">
<path d="M55 5.65C55.359 5.65 55.65 5.35899 55.65 5C55.65 4.64102 55.359 4.35 55 4.35L55 5.65ZM0.540381 4.54038C0.28654 4.79422 0.28654 5.20578 0.540381 5.45962L4.67695 9.59619C4.9308 9.85004 5.34235 9.85004 5.59619 9.59619C5.85003 9.34235 5.85003 8.9308 5.59619 8.67696L1.91924 5L5.59619 1.32305C5.85004 1.0692 5.85004 0.657647 5.59619 0.403807C5.34235 0.149966 4.9308 0.149966 4.67696 0.403807L0.540381 4.54038ZM55 4.35L1 4.35L1 5.65L55 5.65L55 4.35Z" fill="white"/>
</svg>
