<svg width="121" height="16" viewBox="0 0 121 16" fill="none" xmlns="http://www.w3.org/2000/svg">
<path d="M1 7C0.447715 7 0 7.44772 0 8C0 8.55228 0.447715 9 1 9L1 7ZM120.707 8.70711C121.098 8.31658 121.098 7.68342 120.707 7.29289L114.343 0.928932C113.953 0.538408 113.319 0.538408 112.929 0.928932C112.538 1.31946 112.538 1.95262 112.929 2.34315L118.586 8L112.929 13.6569C112.538 14.0474 112.538 14.6805 112.929 15.0711C113.319 15.4616 113.953 15.4616 114.343 15.0711L120.707 8.70711ZM1 9L120 9V7L1 7L1 9Z" fill="#3D3D3D"/>
</svg>
