<svg width="25" height="25" viewBox="0 0 25 25" fill="none" xmlns="http://www.w3.org/2000/svg">
<circle cx="12.5" cy="12.5" r="12.5" fill="#343434"/>
<circle cx="12.5" cy="12.4999" r="11.5385" fill="#474747"/>
<circle cx="12.5" cy="12.5002" r="9.61539" fill="#3D3D3D"/>
<path d="M14.3062 9.24336C13.3769 10.1436 11.854 11.8691 11.2086 12.6194C11.0796 12.4943 10.5891 12.1692 9.65982 11.8691C8.49822 11.494 8.49822 12.2443 8.88542 12.6194C9.27262 12.9945 10.8214 15.2452 11.2086 15.9954C11.5184 16.5956 11.854 15.9954 11.983 15.6203C12.4993 14.4949 13.7642 11.9442 14.6934 10.7438C15.855 9.24336 17.4038 8.11803 17.4038 7.74292C17.0166 6.99269 15.4678 8.11803 14.3062 9.24336Z" fill="#7D8185"/>
</svg>
