<svg width="10" height="11" viewBox="0 0 10 11" fill="none" xmlns="http://www.w3.org/2000/svg">
<path fill-rule="evenodd" clip-rule="evenodd" d="M3.19128 0.121571C3.146 0.188463 2.96071 0.564501 2.77958 0.957281C2.50262 1.55765 2.45561 1.688 2.48423 1.77596C2.50762 1.84771 2.59082 1.91885 2.74911 2.00236C2.87605 2.06934 3.19578 2.23038 3.45958 2.36024C3.72342 2.49006 3.99642 2.60605 4.06631 2.61798C4.15628 2.63335 4.21552 2.61855 4.26941 2.56731C4.31122 2.52747 4.34519 2.44768 4.34488 2.38997C4.34454 2.33226 4.33157 2.26451 4.31603 2.23948C4.30049 2.21441 4.08004 2.0845 3.82617 1.9508L3.36457 1.7077L3.69153 1.60319C3.87136 1.54572 4.16563 1.46261 4.34546 1.41849C4.52529 1.37441 4.88014 1.30808 5.13402 1.27116C5.50726 1.21684 5.73917 1.20964 6.34571 1.23367C6.75826 1.25001 7.208 1.26574 7.3451 1.26865C7.58359 1.27371 7.59674 1.26893 7.6474 1.15816C7.68649 1.07279 7.68987 1.01803 7.66033 0.94984C7.63829 0.898963 7.56282 0.837975 7.49265 0.814316C7.42249 0.790616 7.21839 0.752398 7.0391 0.729386C6.85985 0.706374 6.44395 0.687528 6.11491 0.687528C5.78587 0.687528 5.36997 0.706495 5.19072 0.729709C5.01143 0.752924 4.64969 0.818158 4.38689 0.874616C4.12405 0.931115 3.76927 1.01989 3.59848 1.0719C3.42769 1.12391 3.28229 1.16051 3.27537 1.15319C3.26844 1.14591 3.32622 0.997198 3.40381 0.822728C3.48135 0.648258 3.5681 0.438279 3.59652 0.356058C3.64345 0.220251 3.64114 0.197159 3.5709 0.103291C3.5202 0.0355492 3.45577 0 3.38365 0C3.30526 0 3.24998 0.034983 3.19128 0.121571ZM0.5373 2.9359C0.463253 2.96963 0.352893 3.04627 0.292039 3.10621C0.231147 3.16615 0.140444 3.3062 0.0904375 3.41742C0.026045 3.56067 -0.000342837 3.69041 3.35929e-06 3.86229C0.000272623 4.01674 0.0281222 4.16905 0.0765512 4.28128C0.132327 4.41049 0.642159 4.97451 1.98467 6.39215L3.81666 8.32673L3.02122 8.11004C2.58374 7.99085 2.14157 7.88117 2.0386 7.86629C1.89501 7.84554 1.81257 7.85747 1.68479 7.91749C1.59316 7.96056 1.46811 8.04852 1.40691 8.11295C1.34571 8.17737 1.26385 8.30291 1.22504 8.39188C1.18623 8.48086 1.15407 8.59705 1.15361 8.65007C1.15314 8.70309 1.17284 8.81698 1.19742 8.90316C1.22196 8.9893 1.30186 9.13328 1.37494 9.22302C1.44803 9.3128 1.61105 9.44105 1.73722 9.50802C1.86335 9.57495 2.23786 9.74405 2.5694 9.88378C2.90097 10.0235 3.35399 10.2035 3.57613 10.2837C3.79828 10.364 4.17044 10.484 4.40316 10.5504C4.63588 10.6169 4.96477 10.6993 5.13402 10.7335C5.30327 10.7677 5.65412 10.8155 5.91373 10.8396C6.1733 10.8637 6.46757 10.9096 6.56766 10.9415C6.66771 10.9734 6.80545 10.9998 6.87373 11C6.96386 11.0003 7.01506 10.9728 7.06068 10.8996C7.09991 10.8367 7.11445 10.7609 7.09941 10.6979C7.08453 10.6355 7.02052 10.568 6.9317 10.5211C6.85269 10.4794 6.70152 10.4243 6.59574 10.3988C6.48995 10.3733 6.15664 10.3255 5.85503 10.2927C5.55345 10.2598 5.18129 10.204 5.02801 10.1686C4.87476 10.1333 4.52348 10.033 4.24745 9.9459C3.97141 9.85878 3.60791 9.73458 3.43966 9.66991C3.2714 9.60525 2.95202 9.47611 2.72988 9.38293C2.50773 9.28979 2.18343 9.14205 2.00917 9.05462C1.76037 8.92977 1.68698 8.87319 1.6674 8.79113C1.65236 8.7282 1.66659 8.63345 1.70314 8.55284C1.73652 8.47924 1.79853 8.40745 1.84092 8.3933C1.88562 8.37837 2.39995 8.49841 3.06442 8.67878C3.69496 8.84998 4.31665 9.01757 4.44601 9.05126C4.57537 9.08495 4.7085 9.10149 4.74189 9.08802C4.77528 9.07456 4.8326 9.01539 4.86925 8.9565C4.92807 8.86215 4.92949 8.83857 4.88114 8.75696C4.85094 8.70608 3.87559 7.65243 2.71368 6.41556C1.55173 5.17866 0.569496 4.11639 0.530953 4.05492C0.49241 3.99344 0.460752 3.90952 0.460637 3.86839C0.460483 3.82726 0.489256 3.72959 0.524606 3.6513C0.559918 3.57304 0.642159 3.47481 0.707321 3.43303C0.772483 3.39125 0.885074 3.357 0.957506 3.35691C1.07964 3.35675 1.20157 3.47452 2.63229 4.97446C4.1002 6.51343 4.18217 6.59218 4.31592 6.59218C4.41758 6.59218 4.47309 6.5673 4.51637 6.50227C4.54929 6.45285 4.57626 6.37476 4.57626 6.32873C4.57626 6.28226 4.49736 6.16486 4.39881 6.06472C4.30122 5.96556 4.13678 5.77883 4.03338 5.64978C3.89375 5.47551 3.84548 5.38184 3.84567 5.28579C3.84578 5.21465 3.87852 5.10445 3.91841 5.04083C3.95826 4.97726 4.04038 4.89091 4.10085 4.84901C4.16136 4.80707 4.2541 4.7733 4.30699 4.77395C4.35988 4.7746 4.43989 4.7972 4.48482 4.82422C4.52971 4.85124 4.78786 5.09668 5.05847 5.36967C5.32904 5.64262 5.59184 5.87691 5.64247 5.89025C5.70763 5.90744 5.76198 5.88742 5.82853 5.82166C5.88026 5.77058 5.92258 5.68715 5.92258 5.63627C5.92258 5.57544 5.80418 5.41133 5.57688 5.15702C5.38674 4.94429 5.22041 4.72522 5.20726 4.67013C5.19414 4.61509 5.19391 4.52595 5.20676 4.47204C5.21964 4.41813 5.274 4.31925 5.32758 4.25232C5.3812 4.18534 5.48256 4.11061 5.55288 4.08622C5.63862 4.05645 5.71313 4.05484 5.77921 4.08124C5.83341 4.10288 6.11264 4.35824 6.39971 4.64866C6.829 5.08293 6.94186 5.17668 7.03541 5.17668C7.10934 5.17668 7.17011 5.14521 7.209 5.08677C7.24193 5.03735 7.2689 4.958 7.2689 4.91048C7.2689 4.86296 7.20235 4.74418 7.12099 4.64651C7.03964 4.54884 6.95309 4.42917 6.92866 4.3806C6.90424 4.33199 6.88431 4.25009 6.88439 4.19861C6.88446 4.14709 6.91816 4.04695 6.95924 3.97609C7.00036 3.9052 7.07114 3.82633 7.11657 3.80077C7.16196 3.77521 7.24047 3.76522 7.29101 3.77853C7.34152 3.79188 7.44238 3.85772 7.51504 3.92481C7.58774 3.99191 7.76388 4.23104 7.90647 4.45623C8.04907 4.68142 8.2479 5.03117 8.3483 5.2335C8.44873 5.4358 8.61429 5.83792 8.71619 6.12708C8.81805 6.41625 8.99403 6.84223 9.1072 7.07373C9.22037 7.30526 9.38165 7.60098 9.46559 7.73092C9.58933 7.9225 9.63815 7.96723 9.72362 7.96723C9.78159 7.96723 9.86748 7.93888 9.91449 7.90426C9.96719 7.86548 10 7.79915 10 7.73145C10 7.67107 9.9433 7.53106 9.87398 7.42032C9.80467 7.30963 9.69946 7.12804 9.64023 7.01683C9.58099 6.90561 9.48051 6.68722 9.41697 6.53151C9.35338 6.37581 9.23475 6.06278 9.15332 5.83594C9.07189 5.60905 8.91644 5.24167 8.80789 5.01948C8.69934 4.79728 8.48855 4.42133 8.33949 4.18397C8.19039 3.94665 8.00479 3.68559 7.92701 3.60382C7.84927 3.52208 7.71699 3.42025 7.63306 3.37758C7.54828 3.33447 7.36933 3.29306 7.23043 3.28444C7.01683 3.27114 6.96101 3.2827 6.84738 3.36383C6.77422 3.41604 6.65917 3.5349 6.59166 3.62792C6.52419 3.72098 6.46107 3.82087 6.45141 3.84991C6.43776 3.89104 6.41775 3.88813 6.36094 3.83669C6.32082 3.80033 6.2145 3.73174 6.12464 3.68426C6.03478 3.63674 5.885 3.58691 5.79175 3.57349C5.69851 3.56002 5.53834 3.57053 5.43582 3.59678C5.33331 3.62303 5.18018 3.69425 5.09555 3.75503C4.99227 3.82925 4.90337 3.94604 4.82517 4.11028C4.72585 4.31893 4.69754 4.35035 4.63284 4.32378C4.59114 4.30663 4.45317 4.29151 4.32623 4.29017C4.16144 4.28843 4.04035 4.31468 3.90283 4.38202C3.79689 4.43391 3.65407 4.54355 3.58548 4.62569C3.51686 4.70787 3.46047 4.79716 3.46016 4.82422C3.45981 4.85124 3.44389 4.8994 3.42469 4.93127C3.39788 4.97584 3.18347 4.77427 2.4925 4.05471C1.99894 3.54077 1.55185 3.08542 1.49896 3.0428C1.44607 3.00017 1.34394 2.94416 1.27204 2.91835C1.20011 2.89255 1.03567 2.87217 0.906615 2.87302C0.777522 2.87391 0.611348 2.90218 0.5373 2.9359Z" fill="#3D3D3D"/>
</svg>
