<svg width="36" height="36" viewBox="0 0 36 36" fill="none" xmlns="http://www.w3.org/2000/svg">
<circle class="icon-background" cx="18" cy="18" r="18" fill="#E0E0E0"/>
<path class="icon-body" fill-rule="evenodd" clip-rule="evenodd" d="M13.4622 9.81397C13.114 9.04001 12.7475 9.02443 12.4162 9.01085C12.1453 8.99927 11.8351 9.00001 11.5255 9.00001C11.2156 9.00001 10.712 9.1164 10.2862 9.58151C9.86005 10.0466 8.65918 11.171 8.65918 13.4578C8.65918 15.7449 10.3249 17.9545 10.5571 18.2649C10.7895 18.5749 13.7726 23.4175 18.4969 25.2806C22.4233 26.829 23.2223 26.521 24.0745 26.4435C24.9267 26.3661 26.8245 25.3194 27.2118 24.234C27.5992 23.1488 27.5992 22.2187 27.483 22.0242C27.3667 21.8305 27.0569 21.7143 26.592 21.4818C26.1271 21.2494 23.842 20.1248 23.4159 19.9698C22.9898 19.8149 22.6799 19.7375 22.37 20.2028C22.0601 20.6677 21.17 21.7143 20.8987 22.0243C20.6275 22.3349 20.3564 22.3736 19.8915 22.1411C19.4267 21.908 17.9297 21.4177 16.1538 19.8343C14.772 18.6024 13.8393 17.081 13.5679 16.6157C13.2968 16.1508 13.539 15.899 13.7721 15.6673C13.9808 15.459 14.237 15.1248 14.4694 14.8533C14.7013 14.5819 14.7789 14.3882 14.9338 14.0783C15.0887 13.7679 15.0112 13.4964 14.895 13.2641C14.7789 13.0316 13.8755 10.7329 13.4622 9.81397Z" fill="#828282"/>
</svg>
