<svg width="26" height="26" viewBox="0 0 26 26" fill="none" xmlns="http://www.w3.org/2000/svg">
<path d="M23.9138 17.0371C22.3219 17.0371 20.759 16.7886 19.2778 16.3C18.5521 16.0528 17.6599 16.2796 17.2169 16.7337L14.2935 18.9369C10.9031 17.1302 8.81474 15.046 7.02968 11.6868L9.17163 8.84431C9.72813 8.2895 9.92773 7.47905 9.68859 6.71862C9.19702 5.23223 8.94732 3.67264 8.94732 2.08283C8.94738 0.934349 8.01145 0 6.86109 0H2.0863C0.935932 0 0 0.934349 0 2.08277C0 15.2467 10.7276 25.956 23.9138 25.956C25.0641 25.956 26.0001 25.0217 26.0001 23.8732V19.1198C26 17.9715 25.0641 17.0371 23.9138 17.0371Z" fill="#3D3D3D"/>
</svg>
