<svg width="15" height="12" viewBox="0 0 15 12" fill="none" xmlns="http://www.w3.org/2000/svg">
<path fill-rule="evenodd" clip-rule="evenodd" d="M1.26653 0.0451957C1.15895 0.0726703 0.982419 0.143046 0.874224 0.201579C0.765993 0.260112 0.59361 0.388542 0.491155 0.486973C0.388664 0.585438 0.261119 0.741855 0.207726 0.834585C0.154368 0.927316 0.0857762 1.09356 0.055343 1.20404C0.00693144 1.37967 0 1.98155 0 5.99809C0 10.0213 0.00689524 10.6163 0.0555234 10.7928C0.0860649 10.9036 0.160903 11.0768 0.221877 11.1775C0.282816 11.2782 0.411191 11.4348 0.507148 11.5255C0.603069 11.6162 0.769206 11.7378 0.876282 11.7957C0.983358 11.8537 1.16841 11.9246 1.28747 11.9535C1.47874 11.9998 2.21466 12.0049 7.60217 11.9969L13.7004 11.9879L13.9077 11.9087C14.0217 11.8652 14.2087 11.763 14.3233 11.6815C14.4379 11.6001 14.5996 11.4467 14.6828 11.3406C14.7659 11.2345 14.8713 11.0603 14.917 10.9535L15 10.7592V5.99809V1.23698L14.9179 1.0452C14.8728 0.939705 14.7694 0.765541 14.688 0.658168C14.6066 0.550762 14.4442 0.396119 14.3269 0.314515C14.2096 0.23291 14.0207 0.130623 13.907 0.0872094L13.7004 0.0083013L7.58123 0.00178243C2.30729 -0.003849 1.43509 0.00212384 1.26653 0.0451957ZM13.5252 1.15408C13.6158 1.19558 13.7137 1.2766 13.7622 1.35032L13.8448 1.47589V5.99809V10.5203L13.7656 10.6398C13.7221 10.7055 13.6553 10.7772 13.6172 10.7992C13.5536 10.8359 13.454 10.7051 12.4008 9.20214C11.7699 8.30172 11.1828 7.49056 11.0962 7.39954C11.0096 7.30848 10.8603 7.18636 10.7643 7.12813C10.6683 7.06991 10.4937 6.98967 10.3761 6.94984C10.2151 6.89523 10.0779 6.87738 9.8195 6.87738C9.56108 6.87738 9.42386 6.89523 9.26285 6.94984C9.14531 6.98967 8.97007 7.07028 8.87339 7.12892C8.77672 7.18755 8.69235 7.22974 8.68596 7.22264C8.67953 7.21551 8.44682 6.88718 8.16881 6.49298C7.84646 6.03588 7.58975 5.71075 7.46014 5.5954C7.34838 5.49594 7.15527 5.36983 7.03101 5.31512C6.90672 5.26045 6.69 5.19792 6.54939 5.17621C6.3526 5.14584 6.23361 5.14631 6.03245 5.1784C5.88141 5.20249 5.66542 5.27007 5.52061 5.33857C5.38285 5.40372 5.19267 5.52888 5.09801 5.61666C4.98549 5.72099 4.32639 6.65202 3.19433 8.30579C1.49354 10.7904 1.46134 10.8345 1.38296 10.7859C1.3391 10.7587 1.26989 10.6715 1.22921 10.592C1.15581 10.4487 1.15523 10.4134 1.15523 5.99454V1.54155L1.23646 1.38926C1.29581 1.278 1.36108 1.21629 1.47877 1.16018L1.63986 1.08339H7.50527C13.3639 1.08339 13.3709 1.08346 13.5252 1.15408ZM9.86534 2.24674C9.74166 2.28381 9.53859 2.37975 9.41408 2.45995C9.28592 2.54251 9.11491 2.6964 9.01986 2.81473C8.92751 2.92968 8.81419 3.11316 8.76805 3.22252C8.69729 3.39013 8.68415 3.48282 8.68415 3.81378C8.68415 4.14331 8.69744 4.23771 8.76697 4.40228C8.81249 4.5101 8.92022 4.68689 9.00635 4.79522C9.09246 4.90351 9.25473 5.05645 9.36693 5.13505C9.47917 5.21365 9.66347 5.3126 9.77646 5.35492C9.94773 5.41905 10.0511 5.43188 10.3971 5.43188C10.7431 5.43188 10.8465 5.41905 11.0178 5.35492C11.1308 5.3126 11.3151 5.21365 11.4273 5.13505C11.5395 5.05645 11.7018 4.90351 11.7879 4.79522C11.874 4.68689 11.9814 4.5101 12.0266 4.40228C12.0952 4.23846 12.1087 4.14184 12.1087 3.81378C12.1087 3.48429 12.0953 3.38938 12.0255 3.22258C11.9797 3.11327 11.8655 2.92927 11.7716 2.81364C11.6777 2.69801 11.5005 2.53842 11.3777 2.459C11.255 2.37958 11.0474 2.28333 10.9164 2.24507C10.7554 2.19807 10.5831 2.17616 10.3843 2.17746C10.1967 2.17869 10.0088 2.20377 9.86534 2.24674ZM10.7004 3.36801C10.7728 3.4103 10.8579 3.50487 10.9031 3.59317C10.9615 3.70706 10.9752 3.77836 10.9577 3.87631C10.9448 3.94829 10.9035 4.05511 10.8658 4.11361C10.8282 4.17215 10.7439 4.24651 10.6785 4.27887C10.6131 4.31126 10.4852 4.33798 10.3943 4.33829C10.294 4.33863 10.1809 4.31232 10.1068 4.27136C10.0395 4.23423 9.95238 4.15184 9.91311 4.08829C9.86971 4.01802 9.8417 3.9104 9.8417 3.81378C9.8417 3.71815 9.86996 3.60832 9.91267 3.53808C9.95379 3.47033 10.0515 3.38815 10.1452 3.34238C10.2594 3.28665 10.3463 3.26808 10.4412 3.27927C10.5151 3.28798 10.6318 3.32791 10.7004 3.36801ZM6.57408 6.34861C6.66098 6.40349 7.1583 7.07646 8.27895 8.65545C9.14917 9.88159 9.85441 10.8912 9.84617 10.899C9.83791 10.9068 8.25256 10.9092 6.32314 10.9044L2.81509 10.8957L4.35881 8.64616C5.64058 6.77827 5.92386 6.38595 6.0283 6.33386C6.09751 6.29936 6.22101 6.27113 6.30278 6.27113C6.39722 6.27113 6.49614 6.29939 6.57408 6.34861ZM10.1335 8.06718C10.1841 8.10288 10.6709 8.75777 11.2153 9.52245L12.2051 10.9128H11.7383H11.2714L10.3246 9.55777C9.60058 8.52155 9.38581 8.19032 9.41184 8.14991C9.43054 8.12087 9.50148 8.06937 9.5695 8.03548C9.65596 7.99237 9.74552 7.9781 9.86729 7.98804C9.96311 7.99585 10.0829 8.03145 10.1335 8.06718Z" fill="#828282"/>
</svg>
