<svg width="15" height="12" viewBox="0 0 15 12" fill="none" xmlns="http://www.w3.org/2000/svg">
<path fill-rule="evenodd" clip-rule="evenodd" d="M5.35121 0.0555612C5.25913 0.0851006 5.1231 0.144945 5.04886 0.188592C4.97466 0.232238 4.84042 0.341678 4.7506 0.431799C4.64595 0.536792 4.55155 0.671147 4.48788 0.80565C4.40806 0.974258 4.37122 1.11995 4.30077 1.54531C4.25251 1.83664 4.21289 2.08409 4.21268 2.09525C4.21248 2.10639 3.68727 2.12011 3.0455 2.12576C1.91627 2.13572 1.87204 2.13825 1.67319 2.20463C1.56018 2.24236 1.38185 2.31658 1.27691 2.36956C1.17194 2.42257 1.00365 2.5281 0.902906 2.60405C0.802192 2.68003 0.659471 2.81074 0.585792 2.89453C0.512113 2.97831 0.393875 3.13965 0.323043 3.25303C0.252211 3.36642 0.150558 3.58509 0.0971332 3.73898L0 4.01876V7.06695V10.1151L0.0971332 10.3949C0.150558 10.5488 0.252211 10.7675 0.323043 10.8809C0.393875 10.9942 0.512113 11.1556 0.585792 11.2394C0.659471 11.3232 0.802192 11.4539 0.902906 11.5298C1.00365 11.6058 1.17252 11.7116 1.27817 11.765C1.38382 11.8184 1.56875 11.8931 1.68913 11.931L1.90802 12H7.5H13.092L13.3121 11.931C13.4332 11.893 13.6314 11.8104 13.7524 11.7474C13.8735 11.6843 14.0548 11.566 14.1553 11.4843C14.2558 11.4027 14.4046 11.2534 14.486 11.1525C14.5674 11.0517 14.6854 10.8698 14.7482 10.7483C14.811 10.6268 14.8934 10.428 14.9312 10.3066L15 10.0857V7.06695V4.04821L14.9312 3.82733C14.8934 3.70584 14.811 3.50705 14.7482 3.38556C14.6854 3.26408 14.5674 3.08219 14.486 2.98135C14.4046 2.88051 14.2558 2.73122 14.1553 2.64955C14.0548 2.56791 13.8735 2.44964 13.7524 2.3867C13.6314 2.32379 13.4398 2.24165 13.3268 2.20416C13.1285 2.13843 13.0807 2.13569 11.9595 2.12579L10.7976 2.11555L10.7043 1.56516C10.629 1.12081 10.5916 0.973639 10.51 0.801321C10.4487 0.671707 10.3516 0.530283 10.2628 0.441223C10.1824 0.360527 10.053 0.253973 9.97515 0.204436C9.89733 0.1549 9.74971 0.0883403 9.64711 0.0565331C9.46929 0.00140073 9.36813 -0.00122041 7.48958 0.000281594C5.66566 0.00175415 5.50612 0.00587726 5.35121 0.0555612ZM9.37609 1.25772C9.45754 1.33406 9.4677 1.37082 9.55336 1.89828C9.62407 2.33375 9.66349 2.49764 9.73113 2.63718C9.78382 2.74595 9.88174 2.877 9.97987 2.97013C10.0689 3.05459 10.2177 3.15941 10.3106 3.20308L10.4795 3.28248L11.6977 3.29874C12.7585 3.31291 12.9329 3.3216 13.0479 3.36616C13.1206 3.39428 13.2329 3.45192 13.2975 3.49421C13.362 3.5365 13.4646 3.62456 13.5255 3.68991C13.5862 3.75526 13.6687 3.87587 13.7086 3.95792C13.7486 4.04 13.795 4.18183 13.8118 4.27313C13.8318 4.38245 13.8395 5.37345 13.8341 7.17406L13.8258 9.90897L13.7598 10.071C13.7236 10.16 13.6484 10.2901 13.5929 10.3599C13.5373 10.4298 13.435 10.5325 13.3653 10.5882C13.2957 10.644 13.1661 10.7194 13.0773 10.7558L12.9159 10.822L7.60456 10.8298C4.07014 10.835 2.23864 10.8275 2.13 10.8074C2.04021 10.7908 1.89737 10.7433 1.81262 10.7017C1.72785 10.6602 1.59408 10.5622 1.51532 10.484C1.4366 10.4059 1.3377 10.271 1.29558 10.1843C1.25348 10.0977 1.20564 9.95539 1.18926 9.86816C1.17053 9.76838 1.15949 8.72902 1.15949 7.06695C1.15949 5.40488 1.17053 4.36552 1.18926 4.26574C1.20564 4.1785 1.25131 4.04085 1.29076 3.95986C1.33024 3.87887 1.41261 3.75747 1.47382 3.69006C1.53505 3.62267 1.63796 3.53373 1.70254 3.49241C1.76712 3.45109 1.8794 3.39428 1.95205 3.36616C2.06709 3.3216 2.24158 3.31291 3.30308 3.29874L4.52202 3.28248L4.71848 3.18538C4.82654 3.13199 4.97419 3.02885 5.0466 2.9562C5.11902 2.88354 5.21821 2.7417 5.26703 2.64098C5.33683 2.49694 5.3752 2.3384 5.44664 1.89828C5.5323 1.37082 5.54246 1.33406 5.62391 1.25772L5.71033 1.17673H7.5H9.28967L9.37609 1.25772ZM7.04501 3.41666C6.932 3.43198 6.72191 3.47804 6.57816 3.51904C6.43441 3.56003 6.22306 3.63481 6.10849 3.68523C5.99392 3.73565 5.81433 3.82907 5.70939 3.89286C5.60445 3.95665 5.45008 4.06173 5.36633 4.12638C5.28258 4.19105 5.11585 4.34708 4.99585 4.4731C4.87582 4.59915 4.71173 4.80028 4.63115 4.92008C4.55061 5.03989 4.44285 5.2211 4.39171 5.32277C4.34058 5.42446 4.26012 5.62331 4.21292 5.76468C4.16571 5.90604 4.10662 6.13933 4.08164 6.28311C4.05666 6.42692 4.0362 6.69348 4.0362 6.87552C4.0362 7.05755 4.05661 7.32417 4.08156 7.46804C4.10651 7.61191 4.16753 7.84887 4.2172 7.99466C4.26687 8.14044 4.3404 8.32598 4.38059 8.40697C4.4208 8.48796 4.52739 8.66688 4.61745 8.80456C4.70818 8.94327 4.90647 9.17965 5.06213 9.33468C5.21665 9.48856 5.43872 9.67825 5.55561 9.75621C5.67247 9.8342 5.89074 9.95627 6.04066 10.0275C6.19057 10.0988 6.43823 10.1906 6.59105 10.2317C6.74387 10.2728 7.01105 10.3206 7.18479 10.338C7.40618 10.3603 7.59062 10.3606 7.80123 10.3393C7.96653 10.3225 8.23092 10.2758 8.38876 10.2355C8.54662 10.1952 8.80089 10.1028 8.95383 10.0301C9.10676 9.95745 9.32753 9.8342 9.44439 9.75621C9.56128 9.67825 9.78335 9.48856 9.93787 9.33468C10.0935 9.17965 10.2918 8.94327 10.3826 8.80456C10.4726 8.66688 10.5811 8.48449 10.6236 8.39922C10.6662 8.31396 10.7397 8.12839 10.7869 7.98679C10.8342 7.84519 10.8934 7.6117 10.9184 7.46792C10.9433 7.32411 10.9638 7.05755 10.9638 6.87552C10.9638 6.69348 10.9433 6.42692 10.9184 6.28311C10.8934 6.13933 10.8343 5.90604 10.7871 5.76468C10.7399 5.62331 10.6594 5.42446 10.6083 5.32277C10.5572 5.2211 10.449 5.0385 10.368 4.91702C10.2869 4.79553 10.0939 4.56858 9.93907 4.41273C9.78423 4.25684 9.55233 4.06061 9.42376 3.97665C9.29516 3.89271 9.09702 3.78018 8.98344 3.72661C8.86984 3.67304 8.69087 3.60085 8.58572 3.56622C8.48058 3.53155 8.30225 3.48331 8.18944 3.45896C8.07663 3.43463 7.81923 3.40886 7.61742 3.40176C7.41561 3.39463 7.15802 3.40135 7.04501 3.41666ZM12.2701 3.99891C12.2055 4.02954 12.13 4.08017 12.1024 4.11139C12.0748 4.14263 12.0318 4.21697 12.007 4.27658C11.9822 4.33621 11.9621 4.42189 11.9625 4.46695C11.9628 4.51201 11.9882 4.60434 12.0189 4.6721C12.0531 4.74762 12.1207 4.8259 12.1936 4.87429C12.2816 4.93272 12.3496 4.95327 12.455 4.95327C12.5333 4.95327 12.6361 4.93313 12.6833 4.90848C12.7305 4.88386 12.7971 4.83264 12.8315 4.79465C12.8658 4.75666 12.9087 4.69664 12.9269 4.66127C12.945 4.62587 12.9599 4.5351 12.9599 4.45956C12.9599 4.38398 12.938 4.27593 12.9113 4.21938C12.8845 4.16284 12.8147 4.08476 12.7562 4.04589C12.6976 4.00701 12.5907 3.96802 12.5186 3.95921C12.4245 3.94773 12.3543 3.95895 12.2701 3.99891ZM8.04569 4.65155C8.17341 4.68374 8.38356 4.76326 8.51272 4.82828C8.64188 4.89328 8.82314 5.00602 8.91552 5.07879C9.0079 5.15157 9.15613 5.29947 9.24493 5.4075C9.33373 5.51549 9.46001 5.70728 9.52556 5.83365C9.59108 5.96006 9.67245 6.16666 9.70632 6.29277C9.75114 6.45955 9.76852 6.61446 9.76999 6.86079C9.77143 7.09566 9.75593 7.26268 9.71953 7.40563C9.69062 7.51902 9.60974 7.73107 9.53976 7.87685C9.46978 8.02263 9.33798 8.23209 9.24687 8.3423C9.15575 8.4525 8.99293 8.60774 8.88505 8.68723C8.77714 8.76674 8.60959 8.87053 8.51272 8.91789C8.41585 8.96522 8.24413 9.03319 8.13112 9.06891C7.99996 9.11035 7.81365 9.13962 7.61607 9.14978C7.38757 9.16157 7.24151 9.15258 7.05834 9.11545C6.92184 9.08779 6.69966 9.01331 6.5646 8.9499C6.42954 8.88649 6.25294 8.78701 6.17219 8.72881C6.09144 8.67059 5.97936 8.581 5.92312 8.52969C5.86688 8.47839 5.76076 8.3569 5.68729 8.25972C5.61382 8.16253 5.50433 7.97698 5.44397 7.8474C5.38362 7.71782 5.31035 7.51902 5.28112 7.40563C5.24389 7.26129 5.22857 7.0979 5.23001 6.86079C5.23148 6.61446 5.24886 6.45955 5.29368 6.29277C5.32755 6.16666 5.40892 5.96006 5.47444 5.83365C5.53999 5.70728 5.66627 5.51549 5.75507 5.4075C5.84386 5.29947 5.9921 5.15101 6.08448 5.07756C6.17686 5.00411 6.35812 4.89143 6.48728 4.82719C6.61644 4.76293 6.82118 4.68471 6.94227 4.65334C7.09239 4.61444 7.26596 4.5958 7.48796 4.59468C7.7198 4.59353 7.88034 4.6099 8.04569 4.65155Z" fill="#828282"/>
</svg>
