<svg width="21" height="17" viewBox="0 0 21 17" fill="none" xmlns="http://www.w3.org/2000/svg">
<path d="M18.4092 0C17.7166 0 17.0657 0.275898 16.5758 0.776869L6.982 10.6014L4.42497 7.98739C3.93542 7.48677 3.2845 7.21099 2.59213 7.21099C1.89965 7.21099 1.24873 7.48677 0.759068 7.98728C0.269519 8.48779 0 9.15328 0 9.86114C0 10.569 0.269519 11.2345 0.759068 11.7349L5.1495 16.2236C5.63905 16.7242 6.28997 17 6.98245 17C7.67459 17 8.32574 16.7241 8.81586 16.2231L20.2422 4.52425C21.2527 3.49082 21.2525 1.80949 20.2422 0.776059C19.7526 0.275667 19.1016 0 18.4092 0Z" fill="#C6B55C"/>
</svg>
