<svg width="116" height="116" viewBox="0 0 116 116" fill="none" xmlns="http://www.w3.org/2000/svg">
<circle cx="58" cy="58" r="54" fill="white" stroke="#C6B55C" stroke-width="8"/>
<path d="M75.4484 40C73.9642 40 72.5694 40.6005 71.5196 41.6908L50.9614 63.0737L45.4821 57.3843C44.433 56.2947 43.0382 55.6945 41.5546 55.6945C40.0707 55.6945 38.6759 56.2947 37.6266 57.3841C36.5775 58.4734 36 59.9218 36 61.4625C36 63.0031 36.5775 64.4516 37.6266 65.5406L47.0346 75.3102C48.0837 76.3998 49.4785 77 50.9624 77C52.4456 77 53.8409 76.3995 54.8911 75.3092L79.3761 49.8469C81.5414 47.5977 81.5412 43.9383 79.3761 41.6891C78.3271 40.6 76.932 40 75.4484 40Z" fill="#C6B55C"/>
</svg>
