<svg width="74" height="48" viewBox="0 0 74 48" fill="none" xmlns="http://www.w3.org/2000/svg">
<path d="M34.2003 27.7473C34.0922 27.7473 33.9899 27.7473 33.8819 27.7473C33.8705 27.7417 33.8535 27.7305 33.8421 27.7249C33.6261 27.6913 33.4271 27.6073 33.2566 27.4674C33.1088 27.3441 32.9552 27.2153 32.8358 27.0698C32.6142 26.8067 32.4095 26.5266 32.1992 26.2467C32.0059 25.9891 31.8069 25.7315 31.5682 25.5131C31.3408 25.306 31.0793 25.166 30.778 25.1044C30.6017 25.0708 30.4199 25.0428 30.2379 25.026C29.9367 25.0092 29.6353 25.0036 29.3341 24.9924C29.0214 24.9813 28.7088 24.9645 28.4018 24.9029C27.8447 24.7909 27.4638 24.4717 27.2876 23.9398C27.2137 23.7158 27.1568 23.4862 27.1171 23.2511C27.0431 22.8591 26.9863 22.4616 26.918 22.064C26.8158 21.4649 26.5145 21.0001 25.9801 20.6809C25.9517 20.6641 25.9176 20.6418 25.8892 20.625C25.5766 20.4458 25.2638 20.2723 24.9455 20.0931C24.6953 19.9531 24.4509 19.7963 24.2293 19.6115C23.8029 19.2476 23.6608 18.7885 23.7517 18.2509C23.7972 17.9766 23.8825 17.7133 23.9677 17.4502C24.0927 17.0806 24.2178 16.7167 24.3315 16.3415C24.4908 15.8263 24.4282 15.3336 24.161 14.8689C24.0927 14.7457 24.0246 14.6226 23.945 14.5049C23.7631 14.2194 23.5755 13.9395 23.3936 13.6538C23.2116 13.3627 23.0525 13.0603 22.9899 12.7188C22.9595 12.5691 22.9728 12.4115 22.9957 12.2605C22.9992 12.237 23.003 12.217 23.0071 12.2036C23.0922 11.9013 23.2629 11.6494 23.4788 11.4254C23.7404 11.1622 24.0132 10.9102 24.2804 10.6527C24.4794 10.4567 24.6783 10.2551 24.8659 10.0423C25.0421 9.84075 25.1672 9.59999 25.2127 9.33682C25.2411 9.14084 25.2638 8.93927 25.2582 8.73769C25.2411 8.34014 25.1956 7.93699 25.1672 7.53944C25.1445 7.24828 25.1331 6.95712 25.1785 6.66596C25.2411 6.24601 25.4514 5.91565 25.8209 5.69168C25.9176 5.63569 26.0142 5.57969 26.1109 5.54049C26.2871 5.46771 26.469 5.40611 26.6509 5.35013C27.0374 5.23254 27.4241 5.12615 27.8106 5.01977C28.453 4.84058 28.9078 4.44304 29.1693 3.83272C29.3114 3.50236 29.4535 3.1664 29.5956 2.83604C29.7036 2.58407 29.8287 2.3321 29.9821 2.10254C30.3062 1.6154 30.7724 1.41942 31.3521 1.45861C31.5966 1.47541 31.8353 1.52021 32.0741 1.565C32.4778 1.6378 32.8757 1.72738 33.285 1.80017C33.7852 1.88416 34.2571 1.80578 34.6777 1.509C34.888 1.36343 35.0871 1.20665 35.2916 1.04987C35.5134 0.876289 35.7237 0.697111 35.9454 0.523534C36.1842 0.338758 36.4343 0.176378 36.7242 0.0755904C37.0141 -0.0251968 37.2984 -0.0251968 37.5826 0.0755904C37.7987 0.148381 38.0033 0.254768 38.1795 0.39475C38.4353 0.585126 38.6798 0.7923 38.9356 0.988275C39.163 1.16185 39.3904 1.34104 39.6235 1.509C40.0441 1.80578 40.5216 1.88977 41.0275 1.80017C41.4368 1.73298 41.8405 1.64339 42.2498 1.565C42.6022 1.49781 42.9547 1.43622 43.3128 1.47541C43.6084 1.50901 43.8756 1.6154 44.0803 1.82817C44.1996 1.95135 44.3133 2.08574 44.3985 2.23692C44.5294 2.46089 44.6373 2.69045 44.7396 2.92563C44.8817 3.23918 45.0125 3.55835 45.1547 3.87751C45.4048 4.45424 45.8425 4.82939 46.4507 5.01417C46.4564 5.01417 46.4678 5.01977 46.4735 5.01977C46.8146 5.11495 47.1557 5.21014 47.4911 5.31093C47.798 5.40052 48.0994 5.4901 48.3779 5.64128C48.8554 5.89325 49.0942 6.28521 49.1396 6.80594C49.1737 7.1867 49.134 7.55624 49.0999 7.9314C49.0714 8.26176 49.0316 8.59211 49.0373 8.92807C49.043 9.38162 49.1794 9.77916 49.4864 10.1151C49.6569 10.3055 49.8389 10.4847 50.0207 10.6582C50.2822 10.9102 50.5494 11.1566 50.8053 11.4142C50.9815 11.5877 51.1236 11.7893 51.2203 12.0188C51.2339 12.0498 51.2491 12.0934 51.2629 12.1373C51.2978 12.2475 51.3112 12.3195 51.3112 12.4349C51.3112 12.4706 51.3097 12.5496 51.3069 12.5852C51.302 12.6493 51.2942 12.7486 51.2942 12.7524C51.26 13.0043 51.1577 13.2283 51.0269 13.4467C50.8564 13.7379 50.6631 14.0178 50.4869 14.3034C50.3619 14.4993 50.2425 14.7009 50.1231 14.9025C49.8673 15.3504 49.8104 15.8263 49.9583 16.3192C50.0548 16.6439 50.1628 16.9631 50.2709 17.2822C50.3903 17.635 50.521 17.9878 50.5665 18.3572C50.6177 18.7941 50.5153 19.1859 50.1914 19.5051C50.0605 19.634 49.9127 19.7571 49.7593 19.8523C49.4637 20.037 49.151 20.205 48.8441 20.3842C48.6223 20.5186 48.3949 20.6473 48.1846 20.793C47.8037 21.0505 47.5649 21.4089 47.4512 21.8512C47.3489 22.2432 47.2978 22.6464 47.2353 23.0439C47.1841 23.363 47.1273 23.6766 47.0193 23.9789C46.843 24.4661 46.502 24.7741 45.9903 24.8972C45.6606 24.9757 45.3252 24.9924 44.9841 25.0036C44.5521 25.0148 44.12 25.0092 43.6937 25.082C43.3696 25.1325 43.0684 25.2444 42.824 25.4628C42.6819 25.5916 42.5396 25.7259 42.4203 25.8771C42.193 26.157 41.9826 26.4483 41.7666 26.7338C41.5847 26.9745 41.3914 27.2097 41.1583 27.4057C40.9821 27.5513 40.7888 27.6633 40.5614 27.7193C40.5159 27.7305 40.4705 27.7417 40.425 27.7529C40.3169 27.7529 40.2146 27.7529 40.1067 27.7529C40.0157 27.7305 39.9247 27.7137 39.8394 27.6913C39.487 27.6017 39.163 27.445 38.8332 27.2882C38.5547 27.1593 38.2762 27.025 37.9919 26.9018C37.7304 26.7898 37.4575 26.7114 37.1677 26.7114C36.8493 26.7114 36.5537 26.7954 36.2751 26.9186C35.9398 27.0642 35.6157 27.2266 35.2859 27.3833C34.9904 27.5177 34.6948 27.6522 34.3708 27.7137C34.3196 27.7193 34.2627 27.7361 34.2003 27.7473ZM37.162 24.7125C43.2389 24.7069 48.1619 19.8803 48.1675 13.889C48.1732 7.84181 43.1991 3.04321 37.179 3.03762C31.102 3.02641 26.1734 7.86421 26.162 13.8554C26.145 19.7851 31.0168 24.6957 37.162 24.7125Z" fill="#1C2D3C"/>
<path fill-rule="evenodd" clip-rule="evenodd" d="M37.0901 23.4761C42.4961 23.4761 46.8786 19.1782 46.8786 13.8764C46.8786 8.57457 42.4961 4.27661 37.0901 4.27661C31.6841 4.27661 27.3016 8.57457 27.3016 13.8764C27.3016 19.1782 31.6841 23.4761 37.0901 23.4761ZM37.772 11.7167C37.9863 11.4627 38.1299 11.1709 38.2136 10.822C38.299 10.5697 38.3156 10.2828 38.2917 9.99064C38.2637 9.63149 38.1613 9.29942 37.9193 9.01843C37.7981 8.87922 37.6525 8.77759 37.4768 8.72568C37.1825 8.63701 36.9075 8.69355 36.6496 8.85082C36.3852 9.01186 36.1994 9.24312 36.0531 9.50403C35.8811 9.80766 35.7841 10.1338 35.7541 10.4804C35.7207 10.87 35.7669 11.245 35.9434 11.6021C36.0471 11.8164 36.2 11.9831 36.4047 12.1032C36.6095 12.2232 36.8321 12.2463 37.0594 12.1909C37.3577 12.1212 37.5818 11.9441 37.772 11.7167ZM34.9322 12.9895C35.1578 12.7248 35.3074 12.4208 35.4015 12.0746C35.517 11.6709 35.5297 11.1824 35.3969 10.757C35.3199 10.5059 35.1949 10.2778 34.9924 10.0979C34.8171 9.94167 34.6103 9.85961 34.3736 9.85756C34.0701 9.85436 33.8141 9.98463 33.5962 10.1799C33.3258 10.4246 33.1428 10.728 33.0226 11.0673C32.9078 11.397 32.8569 11.738 32.8792 12.0875C32.9011 12.4588 33.004 12.7993 33.2365 13.0942C33.3544 13.2463 33.5043 13.3628 33.6909 13.4258C33.9667 13.5206 34.2291 13.48 34.4818 13.3516C34.6567 13.2631 34.8054 13.1374 34.9322 12.9895ZM34.1568 17.2891C33.95 17.2482 33.7883 17.2164 33.6292 17.1855C33.3924 17.1422 33.1774 17.0497 33.0009 16.8876C32.8733 16.7715 32.7768 16.6334 32.7008 16.4814C32.561 16.1944 32.5385 15.8972 32.6059 15.5879C32.679 15.2472 32.8467 14.959 33.1039 14.7219C33.1678 14.6617 33.2476 14.6142 33.3268 14.58C33.7103 14.412 34.0863 14.231 34.4534 14.0311C34.4898 14.0111 34.5265 13.9915 34.5633 13.9719C34.6495 13.9257 34.7362 13.8793 34.8186 13.828C35.0984 13.6517 35.3795 13.4704 35.6553 13.2876C35.7779 13.206 35.897 13.1164 36.015 13.028C36.0449 13.0055 36.0747 12.9831 36.1045 12.961C36.174 12.9106 36.2443 12.8577 36.3093 12.8035C36.3709 12.7511 36.4401 12.7226 36.5157 12.7014C36.751 12.6371 36.9873 12.6307 37.2197 12.7004C37.4235 12.7624 37.6029 12.8729 37.7494 13.0326C37.9061 13.2059 38.0029 13.4046 38.06 13.6257C38.1994 14.1709 38.3336 14.7148 38.4256 15.2695C38.5126 15.7816 38.5837 16.3006 38.6529 16.8162C38.6959 17.1408 38.6286 17.4501 38.4947 17.7473C38.3955 17.9685 38.2548 18.1677 38.0702 18.3223C37.5845 18.7327 37.0337 18.8785 36.4138 18.6627C36.2357 18.5992 36.0797 18.4948 35.9459 18.3605C35.5843 17.9957 35.184 17.6812 34.7018 17.4824C34.5699 17.4286 34.4332 17.3827 34.311 17.3417C34.2561 17.3232 34.2041 17.3057 34.1568 17.2891ZM38.8867 14.9707C38.9828 14.6279 39.1145 14.3384 39.3079 14.0789C39.4278 13.9154 39.5593 13.7605 39.6972 13.6128C39.7636 13.543 39.8409 13.4836 39.9186 13.424C39.9459 13.403 39.9734 13.3819 40.0004 13.3604C40.1463 13.2449 40.3074 13.1556 40.4805 13.0942C40.7839 12.9846 41.0922 12.9396 41.399 13.0948C41.5341 13.1634 41.6238 13.2751 41.6989 13.3993C41.8236 13.6081 41.8453 13.8364 41.8367 14.0733C41.8206 14.451 41.6912 14.7934 41.5149 15.1233C41.3555 15.422 41.1483 15.6805 40.9075 15.9192C40.7559 16.0661 40.5849 16.1914 40.4014 16.2913C40.1525 16.4262 39.8861 16.5126 39.5947 16.485C39.2218 16.4497 38.9943 16.2386 38.8803 15.8979C38.7999 15.6596 38.8021 15.4156 38.8493 15.1698C38.8573 15.1065 38.8711 15.043 38.8809 14.9978L38.8844 14.9816L38.8867 14.9707ZM40.9368 11.519C40.7707 12.0989 40.4735 12.5344 40.0431 12.8852C39.8957 13.0056 39.7378 13.1041 39.5638 13.1791C39.2659 13.3093 38.9581 13.3627 38.6392 13.262C38.4257 13.1947 38.2704 13.0575 38.157 12.8681C38.0312 12.6535 37.9957 12.4243 38.0083 12.183C38.0233 11.871 38.1139 11.5788 38.2631 11.3077C38.5047 10.8713 38.8364 10.5137 39.2847 10.2721C39.5369 10.1353 39.8045 10.0548 40.0935 10.0706C40.4131 10.0863 40.6674 10.2194 40.8334 10.5023C40.9632 10.7235 40.9985 10.9636 40.9837 11.2126C40.9768 11.2964 40.9617 11.3793 40.9496 11.4459L40.9494 11.446C40.9445 11.4735 40.9399 11.4982 40.9368 11.519Z" fill="#1C2D3C"/>
<path d="M0.534092 43.0168C0.370897 43.0168 0.241083 42.962 0.14465 42.8524C0.0482167 42.75 0 42.6148 0 42.4467V40.8459C0 40.6778 0.0482167 40.5463 0.14465 40.4512C0.241083 40.3562 0.374606 40.3087 0.545219 40.3087H0.93466C1.32039 39.6582 1.57631 38.898 1.70242 38.0282C1.83594 37.1584 1.9027 36.157 1.9027 35.024V34.0482C1.9027 33.8728 1.95092 33.7376 2.04735 33.6425C2.14378 33.5475 2.28102 33.5 2.45905 33.5H6.58719C6.7578 33.5 6.89132 33.5475 6.98775 33.6425C7.09161 33.7376 7.14353 33.8728 7.14353 34.0482V40.3087H7.69988C7.87049 40.3087 8.00401 40.3562 8.10044 40.4512C8.19688 40.5463 8.24509 40.6778 8.24509 40.8459V42.4467C8.24509 42.6148 8.19688 42.75 8.10044 42.8524C8.00401 42.962 7.8742 43.0168 7.711 43.0168C7.54781 43.0168 7.41429 42.962 7.31043 42.8524C7.214 42.75 7.16578 42.6148 7.16578 42.4467V41.2297H1.07931V42.4467C1.07931 42.6148 1.02738 42.75 0.923533 42.8524C0.8271 42.962 0.697286 43.0168 0.534092 43.0168ZM6.00859 34.41H2.93756V34.9582C2.93756 36.1716 2.86338 37.2059 2.71502 38.0611C2.56666 38.9163 2.32181 39.6655 1.98059 40.3087H6.00859V34.41ZM11.6943 41.3064C11.1602 41.3064 10.6892 41.1931 10.2812 40.9666C9.88063 40.74 9.56908 40.4183 9.34654 40.0017C9.13142 39.5778 9.02386 39.088 9.02386 38.5325C9.02386 37.9697 9.13142 37.48 9.34654 37.0633C9.56908 36.6394 9.88063 36.3141 10.2812 36.0875C10.6892 35.8609 11.1602 35.7476 11.6943 35.7476C12.2284 35.7476 12.6957 35.8609 13.0963 36.0875C13.5043 36.3141 13.8158 36.6394 14.031 37.0633C14.2535 37.48 14.3648 37.9697 14.3648 38.5325C14.3648 39.088 14.2535 39.5778 14.031 40.0017C13.8158 40.4183 13.5043 40.74 13.0963 40.9666C12.6957 41.1931 12.2284 41.3064 11.6943 41.3064ZM11.6943 40.4293C12.1913 40.4293 12.5696 40.2685 12.8293 39.9469C13.0963 39.6253 13.2298 39.1538 13.2298 38.5325C13.2298 37.9185 13.0963 37.4507 12.8293 37.1291C12.5622 36.8002 12.1839 36.6357 11.6943 36.6357C11.2047 36.6357 10.8264 36.8002 10.5594 37.1291C10.2923 37.4507 10.1588 37.9185 10.1588 38.5325C10.1588 39.1538 10.2886 39.6253 10.5482 39.9469C10.8153 40.2685 11.1973 40.4293 11.6943 40.4293ZM20.79 35.7696C20.968 35.7696 21.109 35.8171 21.2128 35.9121C21.3167 36.0071 21.3686 36.1387 21.3686 36.3068V40.7802C21.3686 40.9264 21.3204 41.047 21.2239 41.142C21.1275 41.237 21.0014 41.2845 20.8456 41.2845C20.6973 41.2845 20.5712 41.237 20.4673 41.142C20.3709 41.047 20.3227 40.9227 20.3227 40.7692L20.3338 37.6006L18.9874 40.0456C18.9355 40.1406 18.865 40.2173 18.776 40.2758C18.687 40.327 18.5906 40.3526 18.4867 40.3526C18.3754 40.3526 18.2753 40.327 18.1863 40.2758C18.0973 40.2173 18.0268 40.1406 17.9749 40.0456L16.6285 37.6006L16.6396 40.7692C16.6396 40.9227 16.5877 41.047 16.4839 41.142C16.3874 41.237 16.265 41.2845 16.1167 41.2845C15.9609 41.2845 15.8348 41.237 15.7384 41.142C15.6419 41.047 15.5937 40.9264 15.5937 40.7802V36.3397C15.5937 36.1716 15.6419 36.0364 15.7384 35.934C15.8422 35.8244 15.9757 35.7696 16.1389 35.7696C16.2873 35.7696 16.4134 35.7952 16.5173 35.8463C16.6285 35.8975 16.7212 35.9998 16.7954 36.1533L18.4867 39.289L20.1335 36.2081C20.2225 36.0473 20.3152 35.934 20.4117 35.8682C20.5081 35.8025 20.6342 35.7696 20.79 35.7696ZM26.6125 36.1643C26.7163 36.0181 26.8165 35.9158 26.9129 35.8573C27.0093 35.7988 27.1392 35.7696 27.3024 35.7696C27.4804 35.7696 27.6213 35.8207 27.7252 35.9231C27.829 36.0181 27.881 36.1497 27.881 36.3178V40.7473C27.881 40.9081 27.8327 41.0396 27.7363 41.142C27.6399 41.237 27.5101 41.2845 27.3469 41.2845C27.1911 41.2845 27.0613 41.237 26.9574 41.142C26.861 41.0396 26.8128 40.9081 26.8128 40.7473V37.2607L24.1423 40.9117C24.0385 41.0579 23.9346 41.1566 23.8308 41.2078C23.7343 41.2589 23.6119 41.2845 23.4636 41.2845C23.293 41.2845 23.152 41.237 23.0407 41.142C22.9369 41.0396 22.885 40.9081 22.885 40.7473V36.3068C22.885 36.1533 22.9332 36.0254 23.0296 35.9231C23.1335 35.8207 23.267 35.7696 23.4302 35.7696C23.586 35.7696 23.7121 35.8207 23.8085 35.9231C23.9124 36.0254 23.9643 36.1533 23.9643 36.3068V39.7605L26.6125 36.1643ZM32.2643 38.3132C32.5239 38.401 32.7316 38.5252 32.8874 38.686C33.0506 38.8468 33.2434 39.1173 33.466 39.4974L34.0668 40.4951C34.1187 40.5901 34.1447 40.6815 34.1447 40.7692C34.1447 40.9154 34.0891 41.0396 33.9778 41.142C33.8665 41.237 33.7367 41.2845 33.5884 41.2845C33.3955 41.2845 33.2397 41.1895 33.121 40.9994L32.3421 39.6838C32.1641 39.3914 31.9935 39.194 31.8303 39.0917C31.6745 38.9821 31.4446 38.9272 31.1404 38.9272H30.6063V40.7582C30.6063 40.919 30.5544 41.047 30.4506 41.142C30.3467 41.237 30.2095 41.2845 30.0388 41.2845C29.8683 41.2845 29.731 41.237 29.6272 41.142C29.5307 41.047 29.4825 40.919 29.4825 40.7582V36.3068C29.4825 36.1387 29.5307 36.0071 29.6272 35.9121C29.731 35.8171 29.8683 35.7696 30.0388 35.7696C30.2095 35.7696 30.3467 35.8207 30.4506 35.9231C30.5544 36.0181 30.6063 36.146 30.6063 36.3068V38.083H31.2406L32.9764 35.9998C33.1025 35.8536 33.2434 35.7805 33.3992 35.7805C33.5253 35.7805 33.6329 35.8244 33.7219 35.9121C33.8183 35.9998 33.8665 36.1058 33.8665 36.2301C33.8665 36.3616 33.8183 36.4859 33.7219 36.6028L32.2643 38.3132ZM38.7738 41.2297C38.5958 41.2297 38.4549 41.1822 38.351 41.0872C38.2472 40.9921 38.1952 40.8606 38.1952 40.6924V36.4493C38.1952 36.2812 38.2435 36.146 38.3399 36.0437C38.4437 35.934 38.5773 35.8792 38.7405 35.8792H40.7322C41.333 35.8792 41.8004 35.9962 42.1342 36.2301C42.4754 36.464 42.646 36.8038 42.646 37.2497C42.646 37.5129 42.5681 37.7577 42.4123 37.9843C42.2566 38.2109 42.0192 38.3754 41.7002 38.4777C42.0414 38.5435 42.3085 38.686 42.5014 38.9053C42.6942 39.1173 42.7907 39.3914 42.7907 39.7276C42.7907 39.9907 42.7165 40.2393 42.5681 40.4732C42.4198 40.6998 42.1935 40.8825 41.8894 41.0214C41.5852 41.1603 41.2106 41.2297 40.7656 41.2297H38.7738ZM40.5875 38.1378C40.8768 38.1378 41.1068 38.0684 41.2774 37.9295C41.448 37.7906 41.5333 37.6006 41.5333 37.3594C41.5333 36.8916 41.2069 36.6577 40.5541 36.6577H39.3191V38.1378H40.5875ZM40.6098 40.4512C41.3071 40.4512 41.6557 40.1918 41.6557 39.6728C41.6557 39.4023 41.5593 39.2013 41.3664 39.0698C41.1735 38.9382 40.9065 38.8724 40.5653 38.8724H39.3191V40.4512H40.6098ZM46.9759 43.0168C46.8127 43.0168 46.6829 42.962 46.5864 42.8524C46.49 42.75 46.4418 42.6148 46.4418 42.4467V40.8459C46.4418 40.6778 46.49 40.5463 46.5864 40.4512C46.6829 40.3562 46.8164 40.3087 46.987 40.3087H47.3764C47.7622 39.6582 48.0181 38.898 48.1442 38.0282C48.2777 37.1584 48.3445 36.157 48.3445 35.024V34.0482C48.3445 33.8728 48.3927 33.7376 48.4891 33.6425C48.5856 33.5475 48.7228 33.5 48.9008 33.5H53.0289C53.1995 33.5 53.333 33.5475 53.4295 33.6425C53.5333 33.7376 53.5853 33.8728 53.5853 34.0482V40.3087H54.1416C54.3122 40.3087 54.4457 40.3562 54.5422 40.4512C54.6386 40.5463 54.6868 40.6778 54.6868 40.8459V42.4467C54.6868 42.6148 54.6386 42.75 54.5422 42.8524C54.4457 42.962 54.3159 43.0168 54.1527 43.0168C53.9895 43.0168 53.856 42.962 53.7522 42.8524C53.6557 42.75 53.6075 42.6148 53.6075 42.4467V41.2297H47.5211V42.4467C47.5211 42.6148 47.4692 42.75 47.3653 42.8524C47.2689 42.962 47.1391 43.0168 46.9759 43.0168ZM52.4503 34.41H49.3793V34.9582C49.3793 36.1716 49.3051 37.2059 49.1567 38.0611C49.0084 38.9163 48.7636 39.6655 48.4224 40.3087H52.4503V34.41ZM58.136 41.3064C57.602 41.3064 57.1309 41.1931 56.7229 40.9666C56.3224 40.74 56.0108 40.4183 55.7883 40.0017C55.5731 39.5778 55.4656 39.088 55.4656 38.5325C55.4656 37.9697 55.5731 37.48 55.7883 37.0633C56.0108 36.6394 56.3224 36.3141 56.7229 36.0875C57.1309 35.8609 57.602 35.7476 58.136 35.7476C58.6701 35.7476 59.1375 35.8609 59.538 36.0875C59.946 36.3141 60.2576 36.6394 60.4727 37.0633C60.6952 37.48 60.8065 37.9697 60.8065 38.5325C60.8065 39.088 60.6952 39.5778 60.4727 40.0017C60.2576 40.4183 59.946 40.74 59.538 40.9666C59.1375 41.1931 58.6701 41.3064 58.136 41.3064ZM58.136 40.4293C58.6331 40.4293 59.0114 40.2685 59.271 39.9469C59.538 39.6253 59.6716 39.1538 59.6716 38.5325C59.6716 37.9185 59.538 37.4507 59.271 37.1291C59.0039 36.8002 58.6256 36.6357 58.136 36.6357C57.6465 36.6357 57.2681 36.8002 57.0011 37.1291C56.7341 37.4507 56.6005 37.9185 56.6005 38.5325C56.6005 39.1538 56.7304 39.6253 56.99 39.9469C57.257 40.2685 57.639 40.4293 58.136 40.4293ZM67.2318 35.7696C67.4099 35.7696 67.5508 35.8171 67.6546 35.9121C67.7585 36.0071 67.8104 36.1387 67.8104 36.3068V40.7802C67.8104 40.9264 67.7622 41.047 67.6658 41.142C67.5693 41.237 67.4432 41.2845 67.2875 41.2845C67.1391 41.2845 67.013 41.237 66.9091 41.142C66.8127 41.047 66.7645 40.9227 66.7645 40.7692L66.7756 37.6006L65.4293 40.0456C65.3773 40.1406 65.3069 40.2173 65.2179 40.2758C65.1288 40.327 65.0324 40.3526 64.9286 40.3526C64.8173 40.3526 64.7171 40.327 64.6281 40.2758C64.5391 40.2173 64.4686 40.1406 64.4167 40.0456L63.0704 37.6006L63.0815 40.7692C63.0815 40.9227 63.0296 41.047 62.9257 41.142C62.8293 41.237 62.7069 41.2845 62.5585 41.2845C62.4027 41.2845 62.2766 41.237 62.1802 41.142C62.0838 41.047 62.0356 40.9264 62.0356 40.7802V36.3397C62.0356 36.1716 62.0838 36.0364 62.1802 35.934C62.2841 35.8244 62.4176 35.7696 62.5808 35.7696C62.7291 35.7696 62.8552 35.7952 62.9591 35.8463C63.0704 35.8975 63.1631 35.9998 63.2373 36.1533L64.9286 39.289L66.5753 36.2081C66.6644 36.0473 66.7571 35.934 66.8535 35.8682C66.9499 35.8025 67.076 35.7696 67.2318 35.7696ZM73.5994 39.8811C73.7033 39.8811 73.7886 39.9213 73.8553 40.0017C73.9221 40.0821 73.9555 40.1844 73.9555 40.3087C73.9555 40.5207 73.822 40.6998 73.5549 40.8459C73.2953 40.9921 73.0097 41.1054 72.6982 41.1858C72.394 41.2662 72.101 41.3064 71.8191 41.3064C70.9586 41.3064 70.2799 41.0616 69.7829 40.5718C69.2859 40.0748 69.0374 39.3987 69.0374 38.5435C69.0374 37.9953 69.145 37.5092 69.3601 37.0853C69.5826 36.6613 69.8905 36.3324 70.2836 36.0985C70.6842 35.8646 71.1367 35.7476 71.6411 35.7476C72.368 35.7476 72.9429 35.9779 73.3658 36.4384C73.7886 36.8989 74 37.5202 74 38.3023C74 38.5947 73.8665 38.7408 73.5994 38.7408H70.1612C70.2354 39.8738 70.788 40.4403 71.8191 40.4403C72.0936 40.4403 72.331 40.4037 72.5313 40.3306C72.7315 40.2575 72.9429 40.1625 73.1655 40.0456C73.1877 40.0309 73.2471 40.0017 73.3435 39.9579C73.4474 39.9067 73.5327 39.8811 73.5994 39.8811ZM71.6633 36.559C71.2331 36.559 70.8882 36.6942 70.6285 36.9647C70.3689 37.2351 70.2131 37.6152 70.1612 38.1049H73.032C73.0097 37.6079 72.8799 37.2278 72.6425 36.9647C72.4126 36.6942 72.0862 36.559 71.6633 36.559Z" fill="#1C2D3C"/>
<path d="M0.327452 48.0001C0.274901 48.0001 0.231633 47.9833 0.197638 47.9498C0.166726 47.9193 0.151276 47.8767 0.151276 47.8219V47.2965C0.151276 47.2386 0.166726 47.1929 0.197638 47.1595C0.228538 47.1229 0.268723 47.1047 0.318179 47.1047H0.401631C0.5129 46.9462 0.591716 46.7575 0.638078 46.5382C0.68444 46.3189 0.707621 46.0326 0.707621 45.6793V45.3641C0.707621 45.3062 0.724613 45.2605 0.75862 45.2271C0.792615 45.1905 0.838977 45.1722 0.897706 45.1722H2.06139C2.12011 45.1722 2.16647 45.189 2.20048 45.2225C2.23757 45.2559 2.25612 45.3016 2.25612 45.3595V47.1047H2.41375C2.47246 47.1047 2.51883 47.1214 2.55283 47.1549C2.58995 47.1884 2.60849 47.2341 2.60849 47.292V47.8219C2.60849 47.8767 2.59296 47.9193 2.56213 47.9498C2.53119 47.9833 2.48793 48.0001 2.43229 48.0001C2.37974 48.0001 2.33647 47.9833 2.30248 47.9498C2.27157 47.9193 2.25612 47.8767 2.25612 47.8219V47.397H0.503628V47.8219C0.503628 47.8767 0.486624 47.9193 0.452629 47.9498C0.421717 47.9833 0.379992 48.0001 0.327452 48.0001ZM1.88522 45.4646H1.04606V45.6793C1.04606 46.3494 0.947151 46.8245 0.749347 47.1047H1.88522V45.4646ZM4.05719 45.7296C4.05719 46.2078 4.00619 46.5762 3.9042 46.8351C3.80533 47.094 3.64144 47.2859 3.41276 47.4107C3.39108 47.4199 3.36489 47.4244 3.33394 47.4244C3.28758 47.4244 3.24898 47.4107 3.21804 47.3833C3.19022 47.3559 3.17631 47.3209 3.17631 47.2783C3.17631 47.2478 3.18408 47.2189 3.19949 47.1915C3.21491 47.164 3.23809 47.1427 3.26903 47.1275C3.3803 47.0635 3.46688 46.9782 3.52866 46.8717C3.59357 46.7651 3.63842 46.6235 3.66311 46.4468C3.69093 46.2672 3.70484 46.0296 3.70484 45.7341V45.3641C3.70484 45.3032 3.72188 45.2559 3.75584 45.2225C3.7898 45.189 3.83616 45.1722 3.89492 45.1722H5.12352C5.18228 45.1722 5.22864 45.189 5.2626 45.2225C5.29969 45.2559 5.31824 45.3016 5.31824 45.3595V47.2417C5.31824 47.2934 5.29969 47.3362 5.2626 47.3696C5.22864 47.4031 5.18379 47.4199 5.12815 47.4199C5.07252 47.4199 5.02767 47.4031 4.9937 47.3696C4.95974 47.3362 4.94271 47.2934 4.94271 47.2417V45.4646H4.05719V45.7296ZM7.9224 47.4199C7.86375 47.4199 7.81739 47.4047 7.78331 47.3742C7.74935 47.3407 7.73231 47.295 7.73231 47.2371V46.561H7.44487C7.32131 46.561 7.21468 46.5884 7.12497 46.6432C7.0385 46.6981 6.95969 46.7788 6.88852 46.8854L6.58717 47.3422C6.54394 47.4031 6.48981 47.4336 6.4249 47.4336C6.37854 47.4336 6.33681 47.4168 6.29973 47.3833C6.26264 47.3499 6.24409 47.3102 6.24409 47.2645C6.24409 47.2341 6.25649 47.1991 6.28118 47.1595L6.4759 46.8534C6.54081 46.7529 6.61197 46.6692 6.68917 46.6021C6.7696 46.5351 6.85143 46.491 6.93489 46.4697C6.72475 46.4392 6.57326 46.3677 6.48054 46.2549C6.38781 46.1422 6.34145 46.0097 6.34145 45.8575C6.34145 45.6382 6.41099 45.4692 6.55008 45.3504C6.6923 45.2316 6.88087 45.1722 7.1157 45.1722H7.91313C7.97189 45.1722 8.01825 45.189 8.05221 45.2225C8.08629 45.2559 8.10321 45.3001 8.10321 45.355V47.2371C8.10321 47.295 8.08629 47.3407 8.05221 47.3742C8.02138 47.4047 7.97803 47.4199 7.9224 47.4199ZM7.73231 45.4509H7.21769C7.05392 45.4509 6.92724 45.486 6.83752 45.556C6.74793 45.626 6.70307 45.7311 6.70307 45.8712C6.70307 46.0205 6.75106 46.127 6.8468 46.191C6.94578 46.2519 7.07246 46.2823 7.22697 46.2823H7.73231V45.4509ZM10.9187 47.397C10.86 47.397 10.812 47.3802 10.7749 47.3468C10.741 47.3133 10.7239 47.2691 10.7239 47.2143V45.3641C10.7239 45.3062 10.741 45.2605 10.7749 45.2271C10.809 45.1905 10.8554 45.1722 10.914 45.1722H11.7161C11.9634 45.1722 12.155 45.2194 12.291 45.3139C12.4271 45.4083 12.495 45.5499 12.495 45.7387C12.495 45.8484 12.4625 45.9503 12.3976 46.0448C12.3327 46.1392 12.2338 46.2093 12.1009 46.2549C12.24 46.2793 12.3497 46.3372 12.4301 46.4285C12.5135 46.5199 12.5552 46.6356 12.5552 46.7757C12.5552 46.8793 12.5259 46.9782 12.4672 47.0727C12.4115 47.1671 12.3219 47.2448 12.1983 47.3057C12.0747 47.3665 11.9201 47.397 11.7346 47.397H10.9187ZM11.6883 46.1316C11.8181 46.1316 11.9232 46.0996 12.0035 46.0357C12.084 45.9686 12.1241 45.8788 12.1241 45.7661C12.1241 45.5529 11.9742 45.4463 11.6744 45.4463H11.0995V46.1316H11.6883ZM11.6975 47.1229C12.0159 47.1229 12.1751 47.0027 12.1751 46.762C12.1751 46.6402 12.1287 46.5488 12.036 46.4879C11.9433 46.4271 11.8166 46.3966 11.6558 46.3966H11.0995V47.1229H11.6975ZM14.3992 45.1174C14.9648 45.1174 15.2476 45.4098 15.2476 45.9945V47.2371C15.2476 47.292 15.2306 47.3362 15.1966 47.3696C15.1657 47.4031 15.1224 47.4199 15.0668 47.4199C15.0112 47.4199 14.9663 47.4031 14.9323 47.3696C14.8984 47.3362 14.8813 47.292 14.8813 47.2371V47.0179C14.8226 47.1489 14.733 47.2508 14.6124 47.3239C14.4919 47.3939 14.3528 47.429 14.1952 47.429C14.05 47.429 13.9155 47.4001 13.7918 47.3422C13.6713 47.2843 13.5754 47.2037 13.5044 47.1001C13.4333 46.9965 13.3978 46.8823 13.3978 46.7575C13.3978 46.5899 13.441 46.4605 13.5276 46.3691C13.6142 46.2747 13.7563 46.2078 13.9541 46.1681C14.152 46.1255 14.427 46.1042 14.7794 46.1042H14.8813V45.9534C14.8813 45.7707 14.8428 45.6367 14.7654 45.5514C14.6913 45.4661 14.5692 45.4235 14.3992 45.4235C14.189 45.4235 13.9758 45.4798 13.7594 45.5925C13.6759 45.6443 13.6172 45.6702 13.5832 45.6702C13.5461 45.6702 13.5152 45.6565 13.4905 45.6291C13.4658 45.6017 13.4534 45.5666 13.4534 45.524C13.4534 45.4814 13.4658 45.4449 13.4905 45.4144C13.5183 45.3809 13.5615 45.3473 13.6203 45.3139C13.7284 45.253 13.8506 45.2057 13.9866 45.1722C14.1256 45.1357 14.2632 45.1174 14.3992 45.1174ZM14.2462 47.1366C14.4316 47.1366 14.5831 47.0758 14.7005 46.9539C14.8211 46.8291 14.8813 46.6692 14.8813 46.4742V46.3417H14.7979C14.5259 46.3417 14.3189 46.354 14.1766 46.3783C14.0344 46.3996 13.9324 46.4377 13.8707 46.4925C13.8119 46.5442 13.7826 46.6219 13.7826 46.7255C13.7826 46.8443 13.8258 46.9433 13.9124 47.0224C14.002 47.0986 14.1132 47.1366 14.2462 47.1366ZM16.4914 47.397C16.4296 47.397 16.3816 47.3818 16.3477 47.3513C16.3137 47.3179 16.2967 47.2722 16.2967 47.2143V45.3093C16.2967 45.2545 16.3137 45.2103 16.3477 45.1768C16.3816 45.1433 16.4265 45.1265 16.4821 45.1265C16.5409 45.1265 16.5872 45.1433 16.6212 45.1768C16.6552 45.2103 16.6722 45.2545 16.6722 45.3093V47.1047H17.5484V45.3093C17.5484 45.2545 17.5639 45.2103 17.5948 45.1768C17.6288 45.1433 17.6736 45.1265 17.7293 45.1265C17.788 45.1265 17.8344 45.1433 17.8683 45.1768C17.9023 45.2103 17.9193 45.2545 17.9193 45.3093V47.1047H18.7956V45.3093C18.7956 45.2545 18.8126 45.2103 18.8466 45.1768C18.8805 45.1433 18.9254 45.1265 18.981 45.1265C19.0367 45.1265 19.0815 45.1433 19.1155 45.1768C19.1494 45.2103 19.1665 45.2545 19.1665 45.3093V47.2052C19.1696 47.2631 19.1541 47.3102 19.1201 47.3468C19.0862 47.3802 19.0398 47.397 18.981 47.397H16.4914ZM21.7935 45.2453C21.8244 45.2027 21.8569 45.1722 21.8908 45.154C21.9248 45.1357 21.965 45.1265 22.0114 45.1265C22.0701 45.1265 22.1165 45.1448 22.1505 45.1814C22.1876 45.2179 22.2061 45.2636 22.2061 45.3184V47.2417C22.2061 47.2934 22.1891 47.3362 22.1551 47.3696C22.1211 47.4031 22.0778 47.4199 22.0253 47.4199C21.9758 47.4199 21.9326 47.4031 21.8955 47.3696C21.8615 47.3331 21.8445 47.2905 21.8445 47.2417V45.6473L20.6251 47.3102C20.5726 47.3833 20.5031 47.4199 20.4165 47.4199C20.3578 47.4199 20.3099 47.4031 20.2728 47.3696C20.2357 47.3331 20.2172 47.2874 20.2172 47.2326V45.3093C20.2172 45.2575 20.2342 45.2148 20.2682 45.1814C20.3053 45.1448 20.3501 45.1265 20.4026 45.1265C20.4551 45.1265 20.4985 45.1448 20.5324 45.1814C20.5664 45.2148 20.5834 45.2575 20.5834 45.3093V46.8808L21.7935 45.2453ZM25.1231 47.1138C25.1602 47.1503 25.1787 47.1945 25.1787 47.2463C25.1787 47.292 25.1617 47.3316 25.1277 47.3651C25.0936 47.3985 25.0535 47.4153 25.0072 47.4153C24.9577 47.4153 24.9128 47.3939 24.8727 47.3513L24.1217 46.5062L23.3752 47.3513C23.335 47.3939 23.2902 47.4153 23.2408 47.4153C23.1944 47.4153 23.1527 47.3985 23.1156 47.3651C23.0815 47.3316 23.0646 47.2905 23.0646 47.2417C23.0646 47.196 23.0832 47.1534 23.1202 47.1138L23.8899 46.2595L23.1527 45.4326C23.1156 45.39 23.0971 45.3473 23.0971 45.3047C23.0971 45.2559 23.114 45.2148 23.1481 45.1814C23.1851 45.1479 23.2253 45.1311 23.2686 45.1311C23.318 45.1311 23.3628 45.1525 23.4031 45.1951L24.1217 46.0082L24.8403 45.1951C24.8804 45.1525 24.9252 45.1311 24.9747 45.1311C25.0211 45.1311 25.0612 45.1479 25.0953 45.1814C25.1292 45.2148 25.1463 45.2545 25.1463 45.3001C25.1463 45.3519 25.1277 45.3961 25.0906 45.4326L24.3535 46.2595L25.1231 47.1138ZM28.2264 45.7296C28.2264 46.2078 28.1754 46.5762 28.0735 46.8351C27.9746 47.094 27.8108 47.2859 27.582 47.4107C27.5605 47.4199 27.5341 47.4244 27.5032 47.4244C27.4568 47.4244 27.4182 47.4107 27.3873 47.3833C27.3595 47.3559 27.3456 47.3209 27.3456 47.2783C27.3456 47.2478 27.3533 47.2189 27.3687 47.1915C27.3843 47.164 27.4075 47.1427 27.4383 47.1275C27.5496 47.0635 27.6361 46.9782 27.6979 46.8717C27.7628 46.7651 27.8077 46.6235 27.8324 46.4468C27.8602 46.2672 27.8741 46.0296 27.8741 45.7341V45.3641C27.8741 45.3032 27.8911 45.2559 27.9251 45.2225C27.9592 45.189 28.0055 45.1722 28.0642 45.1722H29.2928C29.3515 45.1722 29.3979 45.189 29.4319 45.2225C29.469 45.2559 29.4875 45.3016 29.4875 45.3595V47.2417C29.4875 47.2934 29.469 47.3362 29.4319 47.3696C29.3979 47.4031 29.353 47.4199 29.2974 47.4199C29.2418 47.4199 29.197 47.4031 29.163 47.3696C29.129 47.3362 29.112 47.2934 29.112 47.2417V45.4646H28.2264V45.7296ZM32.4024 47.429C32.0995 47.429 31.8553 47.3376 31.6699 47.1549C31.4876 46.9691 31.3839 46.7178 31.3592 46.4011H30.9049V47.2417C30.9049 47.2965 30.8879 47.3407 30.8539 47.3742C30.8199 47.4047 30.7751 47.4199 30.7195 47.4199C30.6638 47.4199 30.619 47.4047 30.585 47.3742C30.551 47.3407 30.534 47.2965 30.534 47.2417V45.3093C30.534 45.2545 30.551 45.2103 30.585 45.1768C30.619 45.1433 30.6638 45.1265 30.7195 45.1265C30.7751 45.1265 30.8199 45.1433 30.8539 45.1768C30.8879 45.2103 30.9049 45.2545 30.9049 45.3093V46.1087H31.3639C31.3948 45.8012 31.5015 45.5591 31.6838 45.3824C31.8661 45.2057 32.1057 45.1174 32.4024 45.1174C32.6157 45.1174 32.8011 45.1646 32.9587 45.259C33.1195 45.3535 33.2416 45.4874 33.325 45.661C33.4116 45.8346 33.4548 46.0387 33.4548 46.2732C33.4548 46.5077 33.4116 46.7118 33.325 46.8854C33.2416 47.059 33.1195 47.1929 32.9587 47.2874C32.8011 47.3818 32.6157 47.429 32.4024 47.429ZM32.3978 47.1229C32.6203 47.1229 32.7872 47.0513 32.8985 46.9082C33.0129 46.762 33.07 46.5504 33.07 46.2732C33.07 45.9991 33.0129 45.789 32.8985 45.6428C32.7841 45.4966 32.6188 45.4235 32.4024 45.4235C32.186 45.4235 32.0191 45.4966 31.9017 45.6428C31.7873 45.789 31.7301 45.9991 31.7301 46.2732C31.7301 46.5504 31.7858 46.762 31.8971 46.9082C32.0114 47.0513 32.1784 47.1229 32.3978 47.1229ZM35.3837 47.429C35.1334 47.429 34.9262 47.3665 34.7625 47.2417C34.6017 47.1169 34.4843 46.957 34.4101 46.762C34.3389 46.5641 34.3035 46.3509 34.3035 46.1225C34.3035 45.763 34.3343 45.4707 34.3962 45.2453C34.4611 45.02 34.5522 44.8448 34.6697 44.72C34.7871 44.5951 34.9386 44.4915 35.1241 44.4093C35.223 44.3636 35.3728 44.3119 35.5738 44.254C35.7901 44.19 35.9647 44.1292 36.0977 44.0713C36.1255 44.059 36.1548 44.053 36.1858 44.053C36.2321 44.053 36.2692 44.0682 36.297 44.0987C36.3249 44.1261 36.3388 44.1595 36.3388 44.1992C36.3388 44.2297 36.3295 44.26 36.311 44.2905C36.2924 44.3179 36.2646 44.3408 36.2275 44.3591C36.1533 44.4017 36.0714 44.4382 35.9818 44.4687C35.8952 44.4992 35.7839 44.5341 35.648 44.5738C35.4347 44.6408 35.3079 44.6819 35.2678 44.6971C35.0668 44.7671 34.9123 44.8829 34.8042 45.0443C34.6959 45.2027 34.6388 45.4266 34.6326 45.7159C34.7006 45.5575 34.8072 45.4266 34.9525 45.323C35.1009 45.2164 35.2817 45.1631 35.495 45.1631C35.7793 45.1631 36.0111 45.2575 36.1904 45.4463C36.3727 45.6351 36.464 45.9154 36.464 46.2869C36.464 46.494 36.4206 46.6844 36.3341 46.858C36.2507 47.0316 36.127 47.1701 35.9632 47.2737C35.7993 47.3773 35.6063 47.429 35.3837 47.429ZM35.3837 47.1229C35.6248 47.1229 35.801 47.0392 35.9122 46.8717C36.0235 46.7012 36.0791 46.5077 36.0791 46.2915C36.0791 46.0357 36.0219 45.8361 35.9076 45.693C35.7932 45.5468 35.6324 45.4737 35.4254 45.4737C35.2647 45.4737 35.1287 45.5149 35.0175 45.5971C34.9092 45.6762 34.8289 45.7798 34.7764 45.9077C34.7237 46.0326 34.6976 46.1621 34.6976 46.296C34.6976 46.5276 34.7516 46.724 34.8598 46.8854C34.968 47.0438 35.1426 47.1229 35.3837 47.1229ZM38.9597 45.2453C38.9907 45.2027 39.0231 45.1722 39.0571 45.154C39.0911 45.1357 39.1313 45.1265 39.1776 45.1265C39.2364 45.1265 39.2828 45.1448 39.3167 45.1814C39.3538 45.2179 39.3724 45.2636 39.3724 45.3184V47.2417C39.3724 47.2934 39.3553 47.3362 39.3214 47.3696C39.2874 47.4031 39.2441 47.4199 39.1915 47.4199C39.1421 47.4199 39.0988 47.4031 39.0617 47.3696C39.0278 47.3331 39.0107 47.2905 39.0107 47.2417V45.6473L37.7914 47.3102C37.7389 47.3833 37.6694 47.4199 37.5828 47.4199C37.524 47.4199 37.4762 47.4031 37.4391 47.3696C37.402 47.3331 37.3834 47.2874 37.3834 47.2326V45.3093C37.3834 45.2575 37.4005 45.2148 37.4344 45.1814C37.4715 45.1448 37.5164 45.1265 37.5689 45.1265C37.6214 45.1265 37.6647 45.1448 37.6987 45.1814C37.7326 45.2148 37.7497 45.2575 37.7497 45.3093V46.8808L38.9597 45.2453ZM42.5443 45.1265C42.6031 45.1265 42.6495 45.1433 42.6834 45.1768C42.7205 45.2103 42.7391 45.2559 42.7391 45.3139V47.2463C42.7391 47.298 42.722 47.3407 42.6881 47.3742C42.6571 47.4047 42.6154 47.4199 42.5629 47.4199C42.5104 47.4199 42.467 47.4047 42.4331 47.3742C42.4021 47.3407 42.3867 47.298 42.3867 47.2463L42.3913 45.7616L41.7515 46.9402C41.7361 46.9707 41.7129 46.995 41.682 47.0133C41.6542 47.0316 41.6217 47.0407 41.5846 47.0407C41.5476 47.0407 41.5136 47.0316 41.4826 47.0133C41.4548 46.995 41.4332 46.9707 41.4177 46.9402L40.7733 45.7616L40.7779 47.2463C40.7779 47.298 40.7609 47.3407 40.7269 47.3742C40.696 47.4047 40.6543 47.4199 40.6018 47.4199C40.5493 47.4199 40.5059 47.4047 40.472 47.3742C40.441 47.3407 40.4256 47.298 40.4256 47.2463V45.3184C40.4256 45.2605 40.4426 45.2148 40.4766 45.1814C40.5105 45.1448 40.5569 45.1265 40.6157 45.1265C40.7084 45.1265 40.7764 45.1677 40.8197 45.2499L41.5846 46.6661L42.3403 45.259C42.3867 45.1707 42.4547 45.1265 42.5443 45.1265ZM43.9794 47.397C43.9207 47.397 43.8727 47.3802 43.8356 47.3468C43.8017 47.3133 43.7846 47.2691 43.7846 47.2143V45.3093C43.7846 45.2545 43.8017 45.2103 43.8356 45.1768C43.8697 45.1433 43.9161 45.1265 43.9747 45.1265C44.0304 45.1265 44.0752 45.1433 44.1092 45.1768C44.1433 45.2103 44.1602 45.2545 44.1602 45.3093V45.9671H44.5033C45.0781 45.9671 45.3656 46.1986 45.3656 46.6615C45.3656 46.826 45.3239 46.9645 45.2404 47.0772C45.157 47.1869 45.0473 47.2676 44.9112 47.3194C44.7784 47.3711 44.6377 47.397 44.4893 47.397H43.9794ZM45.9127 47.4199C45.857 47.4199 45.8123 47.4047 45.7782 47.3742C45.7443 47.3407 45.7272 47.2965 45.7272 47.2417V45.3093C45.7272 45.2545 45.7443 45.2103 45.7782 45.1768C45.8123 45.1433 45.857 45.1265 45.9127 45.1265C45.9714 45.1265 46.0178 45.1433 46.0517 45.1768C46.0858 45.2103 46.1027 45.2545 46.1027 45.3093V47.2417C46.1027 47.2965 46.0858 47.3407 46.0517 47.3742C46.0178 47.4047 45.9714 47.4199 45.9127 47.4199ZM44.4291 47.1184C44.5774 47.1184 44.7072 47.0833 44.8185 47.0133C44.9329 46.9433 44.9901 46.8275 44.9901 46.6661C44.9901 46.5016 44.9391 46.3905 44.8371 46.3326C44.7382 46.2747 44.6022 46.2458 44.4291 46.2458H44.1555V47.1184H44.4291ZM49.0166 47.1138C49.0537 47.1503 49.0722 47.1945 49.0722 47.2463C49.0722 47.292 49.0552 47.3316 49.0212 47.3651C48.9872 47.3985 48.9471 47.4153 48.9007 47.4153C48.8512 47.4153 48.8064 47.3939 48.7662 47.3513L48.0152 46.5062L47.2687 47.3513C47.2285 47.3939 47.1837 47.4153 47.1343 47.4153C47.0879 47.4153 47.0462 47.3985 47.0091 47.3651C46.975 47.3316 46.9581 47.2905 46.9581 47.2417C46.9581 47.196 46.9767 47.1534 47.0138 47.1138L47.7834 46.2595L47.0462 45.4326C47.0091 45.39 46.9906 45.3473 46.9906 45.3047C46.9906 45.2559 47.0075 45.2148 47.0416 45.1814C47.0787 45.1479 47.1188 45.1311 47.1621 45.1311C47.2115 45.1311 47.2564 45.1525 47.2966 45.1951L48.0152 46.0082L48.7338 45.1951C48.7739 45.1525 48.8188 45.1311 48.8682 45.1311C48.9146 45.1311 48.9547 45.1479 48.9888 45.1814C49.0227 45.2148 49.0398 45.2545 49.0398 45.3001C49.0398 45.3519 49.0212 45.3961 48.9841 45.4326L48.247 46.2595L49.0166 47.1138ZM51.6795 47.4199C51.6209 47.4199 51.5745 47.4047 51.5404 47.3742C51.5065 47.3407 51.4894 47.2965 51.4894 47.2417V45.3641C51.4894 45.3032 51.5065 45.2559 51.5404 45.2225C51.5745 45.189 51.6209 45.1722 51.6795 45.1722H53.2327C53.2914 45.1722 53.3378 45.189 53.3717 45.2225C53.4088 45.2559 53.4274 45.3016 53.4274 45.3595V47.2417C53.4274 47.2965 53.4105 47.3407 53.3764 47.3742C53.3424 47.4047 53.2976 47.4199 53.2419 47.4199C53.1833 47.4199 53.1369 47.4047 53.1028 47.3742C53.0689 47.3407 53.0518 47.2965 53.0518 47.2417V45.4646H51.865V47.2417C51.865 47.2965 51.848 47.3407 51.814 47.3742C51.78 47.4047 51.7352 47.4199 51.6795 47.4199ZM56.0536 45.2453C56.0845 45.2027 56.117 45.1722 56.1509 45.154C56.185 45.1357 56.2251 45.1265 56.2715 45.1265C56.3302 45.1265 56.3766 45.1448 56.4105 45.1814C56.4476 45.2179 56.4662 45.2636 56.4662 45.3184V47.2417C56.4662 47.2934 56.4493 47.3362 56.4152 47.3696C56.3812 47.4031 56.338 47.4199 56.2854 47.4199C56.236 47.4199 56.1926 47.4031 56.1556 47.3696C56.1216 47.3331 56.1046 47.2905 56.1046 47.2417V45.6473L54.8852 47.3102C54.8327 47.3833 54.7632 47.4199 54.6766 47.4199C54.618 47.4199 54.57 47.4031 54.5329 47.3696C54.4958 47.3331 54.4772 47.2874 54.4772 47.2326V45.3093C54.4772 45.2575 54.4943 45.2148 54.5282 45.1814C54.5653 45.1448 54.6102 45.1265 54.6627 45.1265C54.7153 45.1265 54.7585 45.1448 54.7925 45.1814C54.8266 45.2148 54.8435 45.2575 54.8435 45.3093V46.8808L56.0536 45.2453ZM58.2195 47.4199C58.1638 47.4199 58.1191 47.4047 58.085 47.3742C58.0511 47.3407 58.034 47.2965 58.034 47.2417V45.4646H57.3711C57.3247 45.4646 57.2876 45.4509 57.2598 45.4235C57.232 45.3961 57.2181 45.361 57.2181 45.3184C57.2181 45.2758 57.232 45.2408 57.2598 45.2133C57.2876 45.1859 57.3247 45.1722 57.3711 45.1722H59.0679C59.1143 45.1722 59.1514 45.1859 59.1792 45.2133C59.207 45.2408 59.2209 45.2758 59.2209 45.3184C59.2209 45.361 59.207 45.3961 59.1792 45.4235C59.1514 45.4509 59.1143 45.4646 59.0679 45.4646H58.4096V47.2417C58.4096 47.2965 58.391 47.3407 58.3539 47.3742C58.32 47.4047 58.2751 47.4199 58.2195 47.4199ZM60.9007 47.429C60.6875 47.429 60.4989 47.3818 60.3351 47.2874C60.1743 47.1929 60.0492 47.059 59.9596 46.8854C59.873 46.7087 59.8298 46.5047 59.8298 46.2732C59.8298 46.0417 59.873 45.8392 59.9596 45.6656C60.0492 45.4889 60.1743 45.3535 60.3351 45.259C60.4989 45.1646 60.6875 45.1174 60.9007 45.1174C61.114 45.1174 61.3024 45.1646 61.4663 45.259C61.6301 45.3535 61.7553 45.4889 61.8419 45.6656C61.9315 45.8392 61.9763 46.0417 61.9763 46.2732C61.9763 46.5047 61.9315 46.7087 61.8419 46.8854C61.7553 47.059 61.6301 47.1929 61.4663 47.2874C61.3024 47.3818 61.114 47.429 60.9007 47.429ZM60.9007 47.1229C61.1233 47.1229 61.2932 47.0513 61.4107 46.9082C61.5312 46.762 61.5915 46.5504 61.5915 46.2732C61.5915 46.0022 61.5312 45.7935 61.4107 45.6473C61.2902 45.4981 61.1201 45.4235 60.9007 45.4235C60.6812 45.4235 60.5113 45.4981 60.3907 45.6473C60.2702 45.7935 60.2099 46.0022 60.2099 46.2732C60.2099 46.5473 60.2686 46.7575 60.3861 46.9036C60.5066 47.0498 60.6782 47.1229 60.9007 47.1229ZM65.0162 45.1265C65.0749 45.1265 65.1213 45.1433 65.1553 45.1768C65.1923 45.2103 65.2109 45.2559 65.2109 45.3139V47.2463C65.2109 47.298 65.194 47.3407 65.1599 47.3742C65.1291 47.4047 65.0873 47.4199 65.0347 47.4199C64.9822 47.4199 64.939 47.4047 64.9049 47.3742C64.8741 47.3407 64.8585 47.298 64.8585 47.2463L64.8632 45.7616L64.2234 46.9402C64.208 46.9707 64.1848 46.995 64.1538 47.0133C64.126 47.0316 64.0936 47.0407 64.0565 47.0407C64.0194 47.0407 63.9854 47.0316 63.9545 47.0133C63.9267 46.995 63.9051 46.9707 63.8896 46.9402L63.2451 45.7616L63.2498 47.2463C63.2498 47.298 63.2328 47.3407 63.1988 47.3742C63.1679 47.4047 63.1262 47.4199 63.0736 47.4199C63.0211 47.4199 62.9779 47.4047 62.9438 47.3742C62.9129 47.3407 62.8974 47.298 62.8974 47.2463V45.3184C62.8974 45.2605 62.9145 45.2148 62.9484 45.1814C62.9825 45.1448 63.0289 45.1265 63.0875 45.1265C63.1802 45.1265 63.2483 45.1677 63.2915 45.2499L64.0565 46.6661L64.8122 45.259C64.8585 45.1707 64.9266 45.1265 65.0162 45.1265ZM68.3151 48.0001C68.2594 48.0001 68.2161 47.9833 68.1852 47.9498C68.1543 47.9193 68.1389 47.8767 68.1389 47.8219V47.397H66.4513C66.3894 47.397 66.3415 47.3818 66.3076 47.3513C66.2735 47.3179 66.2566 47.2722 66.2566 47.2143V45.3093C66.2566 45.2545 66.2735 45.2103 66.3076 45.1768C66.3415 45.1433 66.3879 45.1265 66.4467 45.1265C66.5023 45.1265 66.547 45.1433 66.5811 45.1768C66.6151 45.2103 66.6321 45.2545 66.6321 45.3093V47.1047H67.7587V45.3093C67.7587 45.2545 67.7756 45.2103 67.8097 45.1768C67.8437 45.1433 67.89 45.1265 67.9488 45.1265C68.0044 45.1265 68.0492 45.1433 68.0832 45.1768C68.1172 45.2103 68.1342 45.2545 68.1342 45.3093V47.1047H68.2919C68.3537 47.1047 68.4015 47.1214 68.4356 47.1549C68.4696 47.1884 68.4866 47.2341 68.4866 47.292V47.8219C68.4866 47.8767 68.4711 47.9193 68.4402 47.9498C68.4093 47.9833 68.3676 48.0001 68.3151 48.0001ZM71.006 46.8808C71.04 46.8808 71.0693 46.8945 71.0941 46.9219C71.1188 46.9493 71.1312 46.9844 71.1312 47.027C71.1312 47.1032 71.0771 47.1732 70.9689 47.2371C70.8577 47.3011 70.7401 47.3499 70.6166 47.3833C70.4929 47.4138 70.3724 47.429 70.255 47.429C69.9056 47.429 69.6291 47.327 69.4251 47.1229C69.2241 46.9188 69.1237 46.6372 69.1237 46.2778C69.1237 46.0494 69.1685 45.8484 69.2582 45.6748C69.3478 45.4981 69.473 45.361 69.6337 45.2636C69.7975 45.1662 69.9829 45.1174 70.1901 45.1174C70.4836 45.1174 70.717 45.2119 70.8901 45.4006C71.0632 45.5894 71.1498 45.8453 71.1498 46.1681C71.1498 46.229 71.1374 46.2732 71.1127 46.3006C71.0879 46.328 71.0478 46.3417 70.9921 46.3417H69.4993C69.5271 46.8656 69.7789 47.1275 70.255 47.1275C70.3755 47.1275 70.479 47.1123 70.5656 47.0818C70.6521 47.0483 70.7448 47.0041 70.8438 46.9493C70.9241 46.9036 70.9782 46.8808 71.006 46.8808ZM70.1947 45.4052C69.9968 45.4052 69.8377 45.4661 69.7172 45.588C69.5996 45.7098 69.5301 45.8818 69.5085 46.1042H70.8206C70.8143 45.8788 70.7572 45.7067 70.649 45.588C70.5408 45.4661 70.3894 45.4052 70.1947 45.4052ZM72.2593 47.397C72.2007 47.397 72.1527 47.3802 72.1156 47.3468C72.0816 47.3133 72.0646 47.2691 72.0646 47.2143V45.3641C72.0646 45.3062 72.0816 45.2605 72.1156 45.2271C72.1497 45.1905 72.196 45.1722 72.2547 45.1722H73.0567C73.3041 45.1722 73.4957 45.2194 73.6316 45.3139C73.7677 45.4083 73.8356 45.5499 73.8356 45.7387C73.8356 45.8484 73.8032 45.9503 73.7383 46.0448C73.6734 46.1392 73.5745 46.2093 73.4416 46.2549C73.5806 46.2793 73.6904 46.3372 73.7707 46.4285C73.8542 46.5199 73.8959 46.6356 73.8959 46.7757C73.8959 46.8793 73.8666 46.9782 73.8078 47.0727C73.7522 47.1671 73.6626 47.2448 73.5389 47.3057C73.4154 47.3665 73.2607 47.397 73.0753 47.397H72.2593ZM73.0289 46.1316C73.1587 46.1316 73.2639 46.0996 73.3442 46.0357C73.4246 45.9686 73.4647 45.8788 73.4647 45.7661C73.4647 45.5529 73.3149 45.4463 73.015 45.4463H72.4401V46.1316H73.0289ZM73.0382 47.1229C73.3566 47.1229 73.5157 47.0027 73.5157 46.762C73.5157 46.6402 73.4694 46.5488 73.3766 46.4879C73.2839 46.4271 73.1572 46.3966 72.9965 46.3966H72.4401V47.1229H73.0382Z" fill="#1C2D3C" fill-opacity="0.7"/>
</svg>
